<?xml version="1.0" encoding="utf-8"?>
<!-- Generator: Adobe Illustrator 24.0.1, SVG Export Plug-In . SVG Version: 6.00 Build 0)  -->
<svg version="1.1" id="Layer_1" xmlns="http://www.w3.org/2000/svg" xmlns:xlink="http://www.w3.org/1999/xlink" x="0px" y="0px"
	 viewBox="0 0 512 408.2" style="enable-background:new 0 0 512 408.2;" xml:space="preserve">
<style type="text/css">
	.st0{fill:#F0F0F0;}
	.st1{clip-path:url(#SVGID_2_);}
	.st2{fill:url(#SVGID_3_);}
	.st3{fill:url(#SVGID_4_);}
	.st4{clip-path:url(#SVGID_6_);}
	.st5{fill:url(#SVGID_7_);}
	.st6{opacity:0.25;fill:url(#SVGID_8_);}
	.st7{fill:url(#SVGID_9_);}
	.st8{fill:url(#SVGID_10_);}
	.st9{fill:url(#SVGID_11_);}
	.st10{fill:url(#SVGID_12_);}
	.st11{fill:url(#SVGID_13_);}
	.st12{fill:url(#SVGID_14_);}
	.st13{fill:url(#SVGID_15_);}
	.st14{fill:url(#SVGID_16_);}
	.st15{fill:url(#SVGID_17_);}
	.st16{fill:url(#SVGID_18_);}
	.st17{fill:#696969;}
	.st18{fill:#E2D2CA;}
	.st19{fill:#EEA886;}
	.st20{fill:#2F4563;}
	.st21{fill:#EEA987;}
	.st22{fill:#E8734D;}
	.st23{fill:#A77860;}
	.st24{fill:#DBDFF0;}
	.st25{fill:#213045;}
	.st26{fill:#4E9BDE;}
	.st27{fill:#E3E5FF;}
	.st28{fill:#B8BACF;}
	.st29{fill:#EDEBE7;}
	.st30{fill:#DE4E74;}
	.st31{fill:#D2DE4E;}
	.st32{fill:#9E9E9C;}
	.st33{fill:#878787;}
	.st34{fill:#FFFFFF;}
	.st35{fill:#0E1E2B;}
	.st36{fill:url(#SVGID_19_);}
	.st37{fill:url(#SVGID_20_);}
	.st38{fill:url(#SVGID_21_);}
	.st39{fill:url(#SVGID_22_);}
	.st40{fill:url(#SVGID_23_);}
	.st41{fill:url(#SVGID_24_);}
	.st42{fill:#547BB0;}
</style>
<title>2</title>
<g>
	<g>
		<path class="st0" d="M341.5,158.3C262.5,110.6,225.3-36,103.4,51.6s-71.3,267.5,45.5,311.1s267.1,18.9,309.3-61.9
			C530.4,162.6,394.4,190.3,341.5,158.3z"/>
		<path class="st0" d="M341.5,158.3C262.5,110.6,225.3-36,103.4,51.6s-71.3,267.5,45.5,311.1s267.1,18.9,309.3-61.9
			C530.4,162.6,394.4,190.3,341.5,158.3z"/>
		<g>
			<defs>
				<path id="SVGID_1_" d="M341.5,158.3C262.5,110.6,225.3-36,103.4,51.6s-71.3,267.5,45.5,311.1s267.1,18.9,309.3-61.9
					C530.4,162.6,394.4,190.3,341.5,158.3z"/>
			</defs>
			<clipPath id="SVGID_2_">
				<use xlink:href="#SVGID_1_"  style="overflow:visible;"/>
			</clipPath>
			<g class="st1">
				<path class="st0" d="M21.2,327.9c0,0,67.3-67.5,179.8-35.5s178.7,4.6,164.7-165.2c0,0,158,22.1,137.8,134.4
					C478.9,397.9,161.5,449.9,21.2,327.9z"/>
			</g>
		</g>
		
			<linearGradient id="SVGID_3_" gradientUnits="userSpaceOnUse" x1="33.1099" y1="204.0919" x2="478.8901" y2="204.0919" gradientTransform="matrix(1 0 0 -1 0 408.1967)">
			<stop  offset="0" style="stop-color:#009CC2"/>
			<stop  offset="0.246" style="stop-color:#0098C5"/>
			<stop  offset="0.49" style="stop-color:#2897CF"/>
			<stop  offset="0.732" style="stop-color:#177EDF"/>
			<stop  offset="0.972" style="stop-color:#0054F5"/>
			<stop  offset="1" style="stop-color:#0050F8"/>
		</linearGradient>
		<path class="st2" d="M341.5,158.3C262.5,110.6,225.3-36,103.4,51.6s-71.3,267.5,45.5,311.1s267.1,18.9,309.3-61.9
			C530.5,162.6,394.4,190.3,341.5,158.3z"/>
		
			<linearGradient id="SVGID_4_" gradientUnits="userSpaceOnUse" x1="33.1099" y1="204.0919" x2="478.8901" y2="204.0919" gradientTransform="matrix(1 0 0 -1 0 408.1967)">
			<stop  offset="0" style="stop-color:#009CC2"/>
			<stop  offset="0.246" style="stop-color:#0098C5"/>
			<stop  offset="0.49" style="stop-color:#2897CF"/>
			<stop  offset="0.732" style="stop-color:#177EDF"/>
			<stop  offset="0.972" style="stop-color:#0054F5"/>
			<stop  offset="1" style="stop-color:#0050F8"/>
		</linearGradient>
		<path class="st3" d="M341.5,158.3C262.5,110.6,225.3-36,103.4,51.6s-71.3,267.5,45.5,311.1s267.1,18.9,309.3-61.9
			C530.5,162.6,394.4,190.3,341.5,158.3z"/>
		<g>
			<defs>
				<path id="SVGID_5_" d="M341.5,158.3C262.5,110.6,225.3-36,103.4,51.6s-71.3,267.5,45.5,311.1s267.1,18.9,309.3-61.9
					C530.5,162.6,394.4,190.3,341.5,158.3z"/>
			</defs>
			<clipPath id="SVGID_6_">
				<use xlink:href="#SVGID_5_"  style="overflow:visible;"/>
			</clipPath>
			<g class="st4">
				
					<linearGradient id="SVGID_7_" gradientUnits="userSpaceOnUse" x1="21.2407" y1="146.3029" x2="505.2773" y2="146.3029" gradientTransform="matrix(1 0 0 -1 0 408.1967)">
					<stop  offset="0" style="stop-color:#009CC2"/>
					<stop  offset="0.246" style="stop-color:#0098C5"/>
					<stop  offset="0.49" style="stop-color:#2897CF"/>
					<stop  offset="0.732" style="stop-color:#177EDF"/>
					<stop  offset="0.972" style="stop-color:#0054F5"/>
					<stop  offset="1" style="stop-color:#0050F8"/>
				</linearGradient>
				<path class="st5" d="M21.2,327.9c0,0,67.3-67.5,179.8-35.5s178.7,4.6,164.7-165.2c0,0,158,22.1,137.8,134.4
					C478.9,397.9,161.5,449.9,21.2,327.9z"/>
			</g>
		</g>
	</g>
	<linearGradient id="SVGID_8_" gradientUnits="userSpaceOnUse" x1="170.2168" y1="201.1217" x2="170.2168" y2="0">
		<stop  offset="0" style="stop-color:#FFFFFF"/>
		<stop  offset="1" style="stop-color:#FFFFFF;stop-opacity:0.2"/>
	</linearGradient>
	<path class="st6" d="M287.5,201.1H53c-29.1,0-53-23.8-53-53V53C0,23.8,23.8,0,53,0h234.5c29.1,0,53,23.8,53,53v95.2
		C340.4,177.3,316.6,201.1,287.5,201.1z"/>
	<g id="Слой_1">
		<g>
			
				<linearGradient id="SVGID_9_" gradientUnits="userSpaceOnUse" x1="1868.7227" y1="251.3481" x2="1868.7227" y2="411.6711" gradientTransform="matrix(-1 0 0 -1 2028.6899 408.1967)">
				<stop  offset="0" style="stop-color:#3B9DD9"/>
				<stop  offset="1" style="stop-color:#FFFFFF"/>
			</linearGradient>
			<path class="st7" d="M155.3,93.8h9.3v1.1H164v41.9c0,0,0,4-4,4c-4,0-4-4-4-4V94.9h-0.6V93.8z"/>
		</g>
		<g>
			
				<linearGradient id="SVGID_10_" gradientUnits="userSpaceOnUse" x1="1838.3615" y1="264.3434" x2="1838.3615" y2="306.6657" gradientTransform="matrix(-1 0 0 -1 1998.3301 408.1967)">
				<stop  offset="0" style="stop-color:#40CDE6"/>
				<stop  offset="0.2" style="stop-color:#199CCC"/>
				<stop  offset="1" style="stop-color:#55FF77"/>
			</linearGradient>
			<path class="st8" d="M163.3,109.9v26.6c0,0,0,3.3-3.3,3.3s-3.3-3.3-3.3-3.3v-26.6H163.3z"/>
		</g>
		<g>
			
				<linearGradient id="SVGID_11_" gradientUnits="userSpaceOnUse" x1="1896.3615" y1="251.3481" x2="1896.3615" y2="411.6711" gradientTransform="matrix(-1 0 0 -1 2028.6899 408.1967)">
				<stop  offset="0" style="stop-color:#3B9DD9"/>
				<stop  offset="1" style="stop-color:#FFFFFF"/>
			</linearGradient>
			<path class="st9" d="M127.7,86.2h9.3v1.1h-0.6v49.5c0,0,0,4-4,4s-4-4-4-4V87.2h-0.6V86.2z"/>
		</g>
		<g>
			
				<linearGradient id="SVGID_12_" gradientUnits="userSpaceOnUse" x1="1866.0029" y1="262.5067" x2="1866.0029" y2="321.734" gradientTransform="matrix(-1 0 0 -1 1998.3301 408.1967)">
				<stop  offset="0" style="stop-color:#40CDE6"/>
				<stop  offset="0.2" style="stop-color:#4096E6"/>
				<stop  offset="1" style="stop-color:#D93FF5"/>
			</linearGradient>
			<path class="st10" d="M135.7,105.4v31.1c0,0,0,3.3-3.3,3.3s-3.3-3.3-3.3-3.3v-31.1H135.7z"/>
		</g>
		<g>
			
				<linearGradient id="SVGID_13_" gradientUnits="userSpaceOnUse" x1="1882.5433" y1="251.3481" x2="1882.5433" y2="411.6711" gradientTransform="matrix(-1 0 0 -1 2028.6899 408.1967)">
				<stop  offset="0" style="stop-color:#3B9DD9"/>
				<stop  offset="1" style="stop-color:#FFFFFF"/>
			</linearGradient>
			<path class="st11" d="M141.5,101.3h9.3v1.1h-0.6v34.4c0,0,0,4-4,4c-4,0-4-4-4-4v-34.4h-0.6V101.3z"/>
		</g>
		<g>
			
				<linearGradient id="SVGID_14_" gradientUnits="userSpaceOnUse" x1="1852.1835" y1="261.9333" x2="1852.1835" y2="304.4043" gradientTransform="matrix(-1 0 0 -1 1998.3301 408.1967)">
				<stop  offset="0" style="stop-color:#40CDE6"/>
				<stop  offset="0.2" style="stop-color:#E64093"/>
				<stop  offset="1" style="stop-color:#FF36B2"/>
			</linearGradient>
			<path class="st12" d="M149.5,115.1v21.3c0,0,0,3.3-3.3,3.3c-3.3,0-3.3-3.3-3.3-3.3v-21.3H149.5z"/>
		</g>
		
			<linearGradient id="SVGID_15_" gradientUnits="userSpaceOnUse" x1="2178.3215" y1="335.284" x2="1670.6162" y2="335.284" gradientTransform="matrix(-1 0 0 -1 2028.6899 408.1967)">
			<stop  offset="0" style="stop-color:#3B9DD9"/>
			<stop  offset="1" style="stop-color:#FFFFFF"/>
		</linearGradient>
		<rect y="69.6" class="st13" width="208.3" height="6.5"/>
		
			<linearGradient id="SVGID_16_" gradientUnits="userSpaceOnUse" x1="2178.3215" y1="259.2313" x2="1670.6162" y2="259.2313" gradientTransform="matrix(-1 0 0 -1 2028.6899 408.1967)">
			<stop  offset="0" style="stop-color:#3B9DD9"/>
			<stop  offset="1" style="stop-color:#FFFFFF"/>
		</linearGradient>
		<rect y="145.7" class="st14" width="208.3" height="6.5"/>
		<g>
			
				<linearGradient id="SVGID_17_" gradientUnits="userSpaceOnUse" x1="1980.8981" y1="324.4493" x2="1980.8981" y2="473.5527" gradientTransform="matrix(-1 0 0 -1 2028.6899 408.1967)">
				<stop  offset="0" style="stop-color:#3B9DD9"/>
				<stop  offset="1" style="stop-color:#FFFFFF"/>
			</linearGradient>
			<path class="st15" d="M26.8,60.8l15.9-27.6c0.1-0.1,0.2-0.2,0.2-0.3V4.4h-1.2V0h12.1v4.4h-1.2v28.4c0.1,0.1,0.2,0.2,0.2,0.3
				l15.9,27.6c1.6,2.8,0.6,6.4-2.2,8c-0.9,0.5-1.9,0.8-2.9,0.8H31.9c-3.2,0-5.9-2.6-5.9-5.9C26,62.7,26.3,61.7,26.8,60.8z"/>
		</g>
		<g>
			
				<linearGradient id="SVGID_18_" gradientUnits="userSpaceOnUse" x1="1924.5151" y1="332.1068" x2="1924.5151" y2="459.3736" gradientTransform="matrix(-1 0 0 -1 2028.6899 408.1967)">
				<stop  offset="0" style="stop-color:#3B9DD9"/>
				<stop  offset="1" style="stop-color:#FFFFFF"/>
			</linearGradient>
			<path class="st16" d="M80.4,61.6l18-25.1c0.3-0.4,0.6-0.7,0.9-1V11.7h-1.2V7.3h12.1v4.4H109v23.8c0.3,0.3,0.7,0.6,0.9,1l18,25.1
				c2.6,3.6-0.7,8-5.8,8H86.1C81,69.6,77.8,65.2,80.4,61.6z"/>
		</g>
		<polygon class="st17" points="471.4,292.1 495.4,408.2 500.7,408.2 480.3,291.8 		"/>
		<polygon class="st17" points="445.2,292.1 469.2,408.2 474.5,408.2 454.1,291.8 		"/>
		<polygon class="st17" points="402.8,292.1 378.7,408.2 373.4,408.2 393.8,291.8 		"/>
		<path class="st18" d="M380,293h103.5c0,0,7.2-0.2,12-21.5c5.4-24,16.4-104.3,16.4-104.3s-2.9-7.5-48.4-6.5l-81.5,105.8
			C382.1,266.4,379.3,283.1,380,293z"/>
		<path class="st19" d="M276.2,376.8c0,0-3.4,5.2-5.9,7c-2.5,1.8-15.8,9.1-18.1,9.5c-2.3,0.4-14.4,1.7-15.1,5.8
			c-0.7,4.1,9.1,6.1,21.1,5.5c12-0.6,28.6,1.5,30.2,0.1c1.6-1.4,2.4-10.7,1.1-16.5c-0.8-3.6-1-7.4-0.7-11.1L276.2,376.8z"/>
		<path class="st20" d="M252.2,393.2c0,0,6.2,3.8,14.7,2.5s20-3.1,23.2-2c0,0,0.2,8.7-1.7,10.9s-25.1-0.2-26.7-0.2
			c-1.7,0-25.1,2.5-24.6-5.4C237.1,399,234.8,394.9,252.2,393.2z"/>
		<path class="st19" d="M337.4,373c0,0-1,4.9-2,6.5c-1,1.7-8.2,14.4-11,15.3c-2.9,1-12.8,2-11.6,7.2c1.2,5.2,22.3,5.2,24.6,1
			s20.4-18.5,21.3-23.4c0.8-4.9-3.7-14.3-10.2-17.4C341.8,359.1,337.4,373,337.4,373z"/>
		<path class="st19" d="M312.8,402.1c1.2,5.2,22.3,5.2,24.6,1s20.4-18.5,21.3-23.4c0.4-2.1-0.3-5.1-1.7-8.1
			c-1.8-3.8-4.8-7.5-8.5-9.3c-6.7-3.2-11.1,10.7-11.1,10.7s-1,4.9-2,6.5s-8.2,14.4-11,15.3C321.5,395.9,311.6,396.9,312.8,402.1z"/>
		<path class="st20" d="M312.8,402.1c1.2,5.2,22.3,5.2,24.6,1s20.4-18.5,21.3-23.4c0.4-2.1-0.3-5.1-1.7-8.1
			c-2.5,0.2-21.8,22.2-25.7,24.1c-2.2,1.1-4.9,0.8-6.8-0.8C321.6,395.8,311.6,396.9,312.8,402.1z"/>
		<path class="st21" d="M335.3,195.2c0,0-13.5-4.2-17-6.6c-3.6-2.4-27.2,7.5-27.6,9.7c-0.4,2.2,0.1,3.3,0.1,3.3l45.7,3L335.3,195.2z
			"/>
		<path class="st20" d="M295.6,276l19,42.7c1.3,3,2.6,5.8,3.7,8.2c1.3,2.9,2.3,5.2,3,6.9c5,11.3,14.1,39.2,14.1,39.2
			s14-2.6,14.6-10.5c0,0-10.3-17.3-10.3-29.4c0-12-1.6-47.5-13.1-55.2C312.4,268.6,303.3,266.8,295.6,276z"/>
		<path class="st20" d="M398,228.7c0,0-2.3,2.3-4.3,2.9s-35.1,3.1-50.3,8.1c-15.3,5-35.6,8.3-39.4,12.6s-10.1,28-9.9,32.5
			s-17.3,86.1-18.9,92c-0.9,3.1,14.4,2.2,14.4,2.2s20.5-50.9,24.5-59.2c7.4-15.2,7.7-33.8,10.4-36.7c2.7-2.9,32.7-9.3,50-9.3
			c17.3,0,55.9,1.4,60-0.9c4.1-2.3,29.7-19.3,18.9-42.2C442.6,207.9,398,228.7,398,228.7z"/>
		<path class="st22" d="M357.7,91.5c0,0,14.6,39.7,24.2,51.8c9.6,12,5.7-32.6,5.7-32.6S370.9,84.6,357.7,91.5z"/>
		<path class="st22" d="M351.2,88.8c0,0-8.8-29.6,24.8-31.5c33.2-1.9,20.9,45,28.4,53.2s15.4,14.9,18,24.1c0,0,4.8,13.5-0.9,29.6
			C413.9,186.1,375.2,76.6,351.2,88.8z"/>
		<path class="st19" d="M368.8,64.9c-6.4,1.5-19.5,8.8-16.8,26.1c0,0,1.8,4.4,3.9,7.6c2.1,3.2,2,14.6,3,14.9s4.6-0.1,4.6-0.1
			s7,10.4,11,9.1c4-1.3,18.2-8.8,21.3-25.1C398.8,81.2,394.6,58.8,368.8,64.9z"/>
		<path class="st19" d="M378.4,115.8c0,0,1,1.5,2.2,3.7c0.6,1.1,1.4,2.5,2.1,3.9c1.9,4,3.8,8.7,3.6,12.3c0,0,9.8,0.5,13.1-14.1
			c0,0-6.9-12.6-5.4-21.9C395.5,90.3,378.4,115.8,378.4,115.8z"/>
		<path class="st22" d="M352,91.1c0,0,12.3,4,22.9,2.5c10.6-1.5,20.1,7.1,20.1,7.1s9.8-23.9-7.2-36C370.7,52.5,344.1,72.2,352,91.1z
			"/>
		<path class="st19" d="M379,91.8c-0.5-2,0.8-5.6,4.8-3.8c4,1.7,2.4,12.4-0.5,12.2C380.3,100.1,379.5,93.9,379,91.8z"/>
		<path class="st23" d="M380.6,119.5c0.6,1.1,1.4,2.5,2.1,3.9c6.7-7.6,9-15.2,9-15.2C388.2,113.8,380.6,119.5,380.6,119.5z"/>
		<path class="st24" d="M370.3,174.3c4.4,8.1,9.6,7.1,11.2,13.6c1.6,6.5-0.2,7.6,6,16.7c1.2,1.8,2.3,3.6,3.2,5.5
			c0.1,0.2,0.2,0.5,0.4,0.7c0.6,1.1,1.1,2.2,1.6,3.3c0.9,2.1-0.7-1.9,0,0c1.8,4.9,2.1,15.1,2.1,15.1s36.7,8.9,58.1-0.3
			c0,0-11.9-20.9-17.5-28.2c-5.6-7.4-13.7-49.4-14.9-58.2s-13.1-25.9-23.2-25.6l-13.3,9.3c0,0-8.9,23.4-11.4,27
			C370.1,156.9,365.9,166.1,370.3,174.3z"/>
		<path class="st24" d="M400.8,120.1c-5.6-0.4-17.2,3.1-17.5,18.1s-1.1,25.2-0.6,29.2c0.5,4,1.7,30.7,1.7,30.7s-12-0.3-18.5-0.4
			c-9.8-0.2-32.3-3.1-32.3-3.1v16.1c0,0,53,11.5,58.4,9.4s9.9-22.8,11.7-30.9c1.9-8.1,7.1-40.6,8.4-43.9S415.3,121.1,400.8,120.1z"
			/>
		<path class="st24" d="M394.8,229.3c0,0,3.8,78.6,7.2,80.2c4.4,2.1,45.7-6.9,56-9.9c7.7-2.3,2.5-57.5-5.1-70.5
			S394.8,229.3,394.8,229.3z"/>
		<path class="st25" d="M314.6,318.8c1.3,3,2.6,5.8,3.7,8.2c4.1-13.1,3.8-35,3.8-35C319.5,307.2,314.6,318.6,314.6,318.8z"/>
		
			<rect x="298.4" y="180.7" transform="matrix(0.4997 -0.8662 0.8662 0.4997 -1.4523 361.5445)" class="st26" width="27.6" height="2.6"/>
		<rect x="304.3" y="204.5" class="st27" width="9.7" height="203.7"/>
		<rect x="298.7" y="404.8" class="st27" width="20.9" height="3.5"/>
		<rect x="84.8" y="204.5" class="st27" width="9.7" height="203.7"/>
		<rect x="79.2" y="404.8" class="st27" width="20.9" height="3.5"/>
		<rect x="73.3" y="201.1" class="st28" width="267.2" height="6.8"/>
		<path class="st29" d="M262.6,161.2v-1.4h8.7v1.4h-0.5v30.3c0,0,0.2,3.8-3.8,3.8c-4,0-3.8-3.8-3.8-3.8v-30.3L262.6,161.2z"/>
		<path class="st29" d="M252.2,161.2v-1.4h8.7v1.4h-0.5v30.3c0,0,0.2,3.8-3.8,3.8c-4,0-3.8-3.8-3.8-3.8v-30.3L252.2,161.2z"/>
		<path class="st29" d="M241.7,161.2v-1.4h8.7v1.4h-0.5v30.3c0,0,0.2,3.8-3.8,3.8c-4,0-3.8-3.8-3.8-3.8v-30.3L241.7,161.2z"/>
		<path class="st26" d="M269.7,170.2v21c0,0,0.1,2.7-2.7,2.7s-2.7-2.7-2.7-2.7v-21H269.7z"/>
		<path class="st30" d="M259.2,173.8v17.8c0,0,0.1,2.3-2.7,2.3c-2.8,0-2.7-2.3-2.7-2.3v-17.8H259.2z"/>
		<path class="st31" d="M248.8,167.6v23.3c0,0,0.1,3-2.7,3s-2.7-3-2.7-3v-23.3H248.8z"/>
		<rect x="227.6" y="163.2" class="st32" width="43.8" height="2"/>
		<rect x="229.8" y="150.9" class="st32" width="2.5" height="47.6"/>
		<rect x="225.5" y="198.5" class="st32" width="11.1" height="2.6"/>
		
			<rect x="208.1" y="160.9" transform="matrix(0.8412 -0.5408 0.5408 0.8412 -55.6092 140.7984)" class="st33" width="7.6" height="8.3"/>
		
			<rect x="185.8" y="127" transform="matrix(0.8408 -0.5414 0.5414 0.8408 -40.8216 123.5038)" class="st33" width="7.6" height="8.3"/>
		
			<rect x="185.2" y="124.4" transform="matrix(0.8409 -0.5413 0.5413 0.8409 -39.6962 122.1713)" class="st33" width="5.4" height="8.3"/>
		
			<rect x="195.2" y="126" transform="matrix(0.8408 -0.5414 0.5414 0.8408 -48.0281 131.8412)" class="st34" width="9.8" height="43.1"/>
		<path class="st33" d="M196.9,147.2c0,1.8,1.4,3.2,3.2,3.2c1.8,0,3.2-1.4,3.2-3.2c0-1.8-1.4-3.2-3.2-3.2
			C198.4,144,196.9,145.4,196.9,147.2z"/>
		<path class="st34" d="M206.7,188.9l1.7-3.9c-8-3.5-12.5-7.9-13.5-13c-1.5-7.9,5.4-15,5.5-15l-2.3-3.6c-0.4,0.4-9.2,9.4-7.3,19.5
			C191.9,179.4,197.3,184.8,206.7,188.9z"/>
		
			<rect x="205.4" y="183" transform="matrix(0.8859 -0.4639 0.4639 0.8859 -62.048 119.0849)" class="st34" width="11.3" height="5.3"/>
		
			<rect x="209.1" y="179.6" transform="matrix(0.8859 -0.4639 0.4639 0.8859 -59.0603 120.1721)" class="st33" width="11.3" height="1.1"/>
		<rect x="184.6" y="195.2" class="st33" width="32" height="5.9"/>
		<polygon class="st34" points="196.2,195.2 208.9,195.2 205.2,183.9 196.2,182.5 		"/>
		<path class="st33" d="M198.1,187.7c0,1.8,1.4,3.2,3.2,3.2s3.2-1.4,3.2-3.2c0-1.8-1.4-3.2-3.2-3.2S198.1,185.9,198.1,187.7z"/>
		<path class="st35" d="M390.7,348.6l0-14.4c0-2.3,1.9-4.2,4.2-4.2l22.9,0c2.3,0,4.2,1.9,4.2,4.2l0,14.4c0,2.3-1.9,4.2-4.2,4.2
			l-22.9,0C392.6,352.8,390.7,350.9,390.7,348.6z M394.9,332.8c-0.8,0-1.4,0.6-1.4,1.4l0,14.4c0,0.8,0.6,1.4,1.4,1.4c0,0,0,0,0,0
			l22.9,0c0.8,0,1.4-0.6,1.4-1.4l0-14.4c0-0.8-0.6-1.4-1.4-1.4L394.9,332.8z"/>
		
			<rect x="375.6" y="334.4" transform="matrix(1.221857e-03 -1 1 1.221857e-03 28.4652 783.267)" class="st26" width="61.5" height="85.9"/>
		
			<linearGradient id="SVGID_19_" gradientUnits="userSpaceOnUse" x1="1924.5148" y1="334.5886" x2="1924.5148" y2="360.3217" gradientTransform="matrix(-1 0 0 -1 2028.6899 408.1967)">
			<stop  offset="0.2" style="stop-color:#BA3477"/>
			<stop  offset="1" style="stop-color:#FF36B2"/>
		</linearGradient>
		<path class="st36" d="M92.1,65.7h24.1c3.4,0,5.6-3,3.9-5.3l-3.3-4.6H91.6l-3.3,4.6C86.6,62.7,88.7,65.7,92.1,65.7z"/>
		
			<linearGradient id="SVGID_20_" gradientUnits="userSpaceOnUse" x1="1980.9095" y1="327.154" x2="1980.9095" y2="378.3654" gradientTransform="matrix(-1 0 0 -1 2028.6899 408.1967)">
			<stop  offset="0.2" style="stop-color:#199CCC"/>
			<stop  offset="1" style="stop-color:#3CB555"/>
		</linearGradient>
		<path class="st37" d="M37.2,65.3h21.2c2.2,0,3.9-1.8,3.9-3.9c0-0.7-0.2-1.4-0.5-2l-8-13.9h-12l-8,13.9c-1.1,1.9-0.4,4.3,1.5,5.4
			C35.8,65.1,36.5,65.3,37.2,65.3z"/>
		<g>
			
				<linearGradient id="SVGID_21_" gradientUnits="userSpaceOnUse" x1="1871.4347" y1="323.9848" x2="1871.4347" y2="469.9084" gradientTransform="matrix(-1 0 0 -1 2028.6899 408.1967)">
				<stop  offset="0" style="stop-color:#3B9DD9"/>
				<stop  offset="1" style="stop-color:#FFFFFF"/>
			</linearGradient>
			<path class="st38" d="M138.2,61.6l14.2-24.7V17.9h-1.2v-4.4h12.1v4.4h-1.2v19.1l14.2,24.7c1.5,2.6,0.6,5.8-2,7.3
				c-0.8,0.5-1.7,0.7-2.7,0.7h-28.9c-3,0-5.3-2.4-5.3-5.3C137.5,63.4,137.7,62.4,138.2,61.6z"/>
		</g>
		
			<linearGradient id="SVGID_22_" gradientUnits="userSpaceOnUse" x1="1871.436" y1="410.0919" x2="1871.436" y2="335.507" gradientTransform="matrix(-1 0 0 -1 2028.6899 408.1967)">
			<stop  offset="0" style="stop-color:#40D5E6"/>
			<stop  offset="1" style="stop-color:#3056F0"/>
		</linearGradient>
		<path class="st39" d="M147,66.5h20.6c2.1,0,3.8-1.7,3.8-3.8c0-0.7-0.2-1.3-0.5-1.9l-5.7-9.8h-15.9l-5.7,9.8
			c-1.1,1.8-0.4,4.2,1.4,5.2C145.6,66.3,146.3,66.5,147,66.5z"/>
		<g>
			
				<linearGradient id="SVGID_23_" gradientUnits="userSpaceOnUse" x1="1949.2318" y1="255.9294" x2="1949.2318" y2="374.1664" gradientTransform="matrix(-1 0 0 -1 2028.6899 408.1967)">
				<stop  offset="0" style="stop-color:#3B9DD9"/>
				<stop  offset="1" style="stop-color:#FFFFFF"/>
			</linearGradient>
			<path class="st40" d="M75.8,104.8V84.4H75v-3.3h9v3.3h-0.9v20.4c9.8,2,16.2,11.6,14.2,21.4c-2,9.8-11.6,16.2-21.4,14.2
				c-9.8-2-16.2-11.6-14.2-21.4C63.1,111.8,68.7,106.2,75.8,104.8L75.8,104.8z"/>
		</g>
		
			<linearGradient id="SVGID_24_" gradientUnits="userSpaceOnUse" x1="1949.2332" y1="271.6135" x2="1949.2332" y2="286.1323" gradientTransform="matrix(-1 0 0 -1 2028.6899 408.1967)">
			<stop  offset="0.2" style="stop-color:#199CCC"/>
			<stop  offset="1" style="stop-color:#3CB555"/>
		</linearGradient>
		<path class="st41" d="M65.7,122.8c-0.1,7.6,6,13.9,13.6,14c7.6,0.1,13.9-6,14-13.6c0-0.1,0-0.3,0-0.4c0-0.2,0-0.5,0-0.7H65.7
			C65.7,122.3,65.7,122.6,65.7,122.8z"/>
		<path class="st42" d="M56,118.3h46.8v28.5H56V118.3z M100.6,120.6H58.3v24h42.4L100.6,120.6z"/>
		<path class="st42" d="M122.7,118.3h46.8v28.5h-46.8V118.3z M167.3,120.6H125v24h42.4L167.3,120.6z"/>
	</g>
</g>
</svg>
